<?xml version="1.0" standalone="no"?>
<!DOCTYPE svg PUBLIC "-//W3C//DTD SVG 20010904//EN"
 "http://www.w3.org/TR/2001/REC-SVG-20010904/DTD/svg10.dtd">
<svg version="1.0" xmlns="http://www.w3.org/2000/svg"
 width="640.000000pt" height="640.000000pt" viewBox="0 0 640.000000 640.000000"
 preserveAspectRatio="xMidYMid meet">

<g transform="translate(0.000000,640.000000) scale(0.100000,-0.100000)"
fill="#000000" stroke="none">
<path d="M2015 5420 c-56 -23 -981 -390 -1255 -497 -77 -30 -100 -48 -100 -78
0 -19 280 -423 338 -488 15 -17 15 -20 1 -30 -113 -85 -189 -185 -214 -282
-10 -39 -15 -106 -15 -200 1 -651 192 -1248 538 -1680 118 -147 350 -352 484
-427 33 -19 38 -26 38 -58 0 -59 28 -150 67 -214 123 -202 409 -368 774 -450
339 -76 770 -76 1107 0 480 108 813 360 838 635 6 65 7 66 53 95 89 56 197
141 285 225 452 427 705 1066 722 1824 4 153 9 219 24 280 60 241 46 540 -36
785 -46 138 -94 221 -168 295 -108 106 -206 145 -371 145 -160 0 -294 -35
-483 -125 -190 -91 -328 -187 -472 -329 l-95 -94 -115 13 c-246 29 -496 38
-853 31 -193 -3 -391 -9 -438 -12 l-86 -6 -215 333 c-246 384 -223 363 -353
309z m3282 -259 c149 -65 221 -251 195 -499 -42 -380 -268 -804 -518 -971
-220 -148 -461 -122 -709 74 -148 117 -254 278 -275 419 -29 187 58 387 251
577 179 176 437 332 654 393 124 34 127 35 245 32 83 -2 116 -7 157 -25z m324
-653 c28 -328 -74 -656 -254 -814 -51 -45 -202 -127 -265 -144 -55 -14 -172
-28 -172 -20 0 3 19 15 43 27 200 97 419 385 540 708 31 81 73 239 83 308 3
26 8 46 11 43 3 -2 9 -51 14 -108z m-2411 -208 c-9 -5 -79 -9 -155 -10 -164
-2 -178 -1 -145 10 35 11 319 12 300 0z m660 -73 l0 -52 -112 3 c-135 4 -231
-9 -355 -50 l-93 -30 -75 23 c-41 13 -75 26 -75 29 0 11 162 72 255 96 101 26
294 43 403 36 l52 -4 0 -51z m-761 40 c-2 -1 -13 -9 -24 -17 -19 -14 -19 -14
-6 3 7 9 18 17 24 17 6 0 8 -1 6 -3z m-151 -38 c10 -15 21 -20 37 -16 14 2 22
0 19 -4 -11 -18 -52 -8 -68 16 -9 14 -13 25 -9 25 5 0 14 -9 21 -21z m-68
-133 c99 -20 280 -69 280 -76 0 -3 -16 -16 -36 -29 l-35 -24 -97 27 c-152 42
-236 55 -382 62 -156 7 -280 -5 -421 -42 -84 -22 -103 -24 -139 -14 -24 6 -39
15 -34 20 21 19 176 60 354 94 56 10 437 -3 510 -18z m992 -43 c45 -9 32 -21
-29 -28 -253 -26 -431 -100 -612 -254 -42 -36 -75 -52 -162 -81 -60 -20 -109
-34 -109 -32 0 14 110 139 160 182 130 113 320 199 483 220 69 8 211 5 269 -7z
m-2562 -149 c0 -12 -141 -144 -153 -144 -11 0 5 34 27 59 20 23 20 23 1 13
-11 -6 -47 -36 -80 -66 -54 -51 -85 -64 -85 -37 0 18 107 118 182 171 67 47
72 49 90 34 10 -10 18 -23 18 -30z m-120 31 c0 -2 -13 -11 -30 -20 -38 -19
-40 -11 -2 9 31 17 32 18 32 11z m727 -15 c207 -49 367 -182 433 -357 38 -101
49 -279 17 -268 -7 2 -67 11 -134 20 -298 37 -639 124 -875 222 -104 43 -105
46 -51 154 62 123 148 193 284 229 98 25 221 25 326 0z m833 9 c72 -11 221
-47 228 -54 3 -2 -11 -22 -31 -44 -20 -22 -48 -58 -62 -80 l-27 -40 -46 36
c-106 82 -232 116 -402 111 -108 -3 -117 -1 -148 21 -18 13 -31 25 -29 27 2 2
39 10 83 18 94 17 343 20 434 5z m1242 -58 l25 -39 -81 -7 c-44 -4 -122 -18
-173 -31 -88 -23 -96 -23 -150 -9 -31 8 -75 15 -98 16 l-40 1 50 23 c111 53
238 82 366 84 l75 1 26 -39z m-2882 15 c0 -2 -12 -11 -27 -20 l-28 -17 24 20
c23 21 31 25 31 17z m-70 -51 c-7 -9 -15 -13 -19 -10 -3 3 1 10 9 15 21 14 24
12 10 -5z m-40 -35 c-13 -8 -13 -13 -1 -32 14 -23 14 -23 -8 -4 -20 18 -20 20
-4 38 9 10 19 16 22 13 3 -4 -1 -10 -9 -15z m208 -35 c-6 -14 -13 -23 -15 -21
-5 5 15 46 22 46 3 0 -1 -11 -7 -25z m1322 -26 c154 -24 277 -118 345 -261 31
-65 72 -215 62 -225 -5 -5 -348 15 -398 23 l-36 5 -6 102 c-7 121 -33 225 -76
301 -17 31 -31 58 -31 61 0 8 71 6 140 -6z m1658 -70 c26 -23 57 -46 70 -52
12 -6 22 -13 22 -17 0 -4 -39 -10 -87 -13 l-88 -5 -36 39 c-19 21 -60 50 -90
63 l-54 25 108 0 109 1 46 -41z m-3183 -93 c2 -12 6 -68 9 -126 16 -316 133
-714 287 -983 110 -192 256 -379 386 -494 42 -38 92 -83 112 -101 34 -31 34
-32 6 -16 -94 56 -264 203 -363 314 -295 333 -484 793 -547 1330 -8 69 -15
142 -15 163 l0 38 60 -52 c33 -29 62 -62 65 -73z m165 109 c0 -8 -4 -15 -10
-15 -5 0 -7 7 -4 15 4 8 8 15 10 15 2 0 4 -7 4 -15z m-65 -5 c3 -6 -1 -7 -9
-4 -18 7 -21 14 -7 14 6 0 13 -4 16 -10z m2513 -16 c18 -7 45 -23 59 -34 20
-16 41 -20 98 -20 88 0 159 -20 196 -56 24 -23 29 -36 29 -76 0 -45 3 -50 32
-66 44 -24 85 -63 92 -88 6 -20 1 -22 -86 -33 -51 -7 -140 -14 -198 -15 -58
-2 -82 -2 -53 1 44 3 56 9 82 39 59 66 37 141 -54 187 -161 81 -502 62 -647
-36 -87 -59 -98 -119 -33 -184 18 -18 29 -35 24 -38 -4 -3 -31 -3 -58 1 l-49
6 -7 56 c-6 46 -34 149 -60 213 -11 28 169 89 262 89 24 0 51 10 76 27 72 50
209 62 295 27z m-2458 -14 c0 -5 -2 -10 -4 -10 -3 0 -8 5 -11 10 -3 6 -1 10 4
10 6 0 11 -4 11 -10z m2548 -175 c92 -21 132 -46 132 -83 0 -54 -79 -106 -182
-118 -58 -7 -165 15 -206 42 -29 19 -24 25 41 44 39 12 53 21 55 37 4 29 -19
34 -79 19 -88 -23 -117 -79 -68 -132 20 -22 30 -25 62 -20 22 4 37 2 37 -4 0
-6 -43 -10 -113 -10 -110 0 -113 1 -162 33 -27 17 -56 44 -64 59 -15 25 -14
29 9 53 30 32 72 52 160 76 85 23 285 25 378 4z m99 8 c-4 -3 -2 -12 4 -19 8
-10 6 -11 -15 -1 -21 10 -23 13 -8 19 23 9 27 9 19 1z m673 -13 c124 -13 265
-44 235 -53 -47 -14 -344 -76 -390 -82 -27 -4 -57 -9 -65 -11 -12 -3 -19 8
-28 40 -6 25 -24 56 -42 72 l-30 29 27 6 c45 11 180 10 293 -1z m-600 -114 c0
-2 -8 -10 -17 -17 -16 -13 -17 -12 -4 4 13 16 21 21 21 13z m-343 -92 c-3 -3
-12 -4 -19 -1 -8 3 -5 6 6 6 11 1 17 -2 13 -5z m-309 -11 c-10 -2 -26 -2 -35
0 -10 3 -2 5 17 5 19 0 27 -2 18 -5z"/>
<path d="M4594 4669 c-125 -16 -240 -103 -301 -227 -36 -73 -38 -80 -38 -176
0 -92 3 -107 31 -167 56 -117 145 -194 259 -224 216 -56 432 64 497 278 87
286 -148 556 -448 516z m186 -134 c85 -43 132 -103 156 -196 28 -108 -9 -217
-97 -293 -57 -48 -124 -69 -207 -64 -80 5 -132 28 -186 83 -57 59 -80 116 -80
200 1 137 79 242 214 286 41 14 161 4 200 -16z"/>
</g>
</svg>
